<svg width="55" height="8" viewBox="0 0 55 8" fill="none" xmlns="http://www.w3.org/2000/svg">
<path fill-rule="evenodd" clip-rule="evenodd" d="M0 0C2.46711 0 3.80565 1.33526 4.72063 2.24799C4.73028 2.25762 4.73989 2.2672 4.74945 2.27674C5.55258 3.07765 5.93104 3.42857 6.8753 3.42857C7.81947 3.42857 8.19771 3.07776 9.00058 2.27691C9.01012 2.26739 9.01972 2.25782 9.02935 2.2482C9.94419 1.3354 11.2826 0 13.7498 0C16.2171 0 17.5556 1.33541 18.4706 2.24823L18.4992 2.27682C19.3024 3.07786 19.6806 3.42857 20.6243 3.42857C21.568 3.42857 21.9462 3.07787 22.7496 2.27674L22.778 2.24835C23.6932 1.3354 25.0319 0 27.4996 0C29.9673 0 31.3058 1.33539 32.2209 2.24832L32.2494 2.27682C33.0525 3.07776 33.4307 3.42857 34.3749 3.42857C35.3191 3.42857 35.6973 3.07776 36.5004 2.27682L36.5289 2.24832C37.444 1.33539 38.7825 0 41.2502 0C43.7179 0 45.0564 1.33538 45.9714 2.24831L46 2.27682C46.8031 3.07776 47.1813 3.42857 48.1255 3.42857C49.0697 3.42857 49.4479 3.07776 50.2508 2.27691L50.2795 2.2482C51.1944 1.3354 52.5328 0 55 0V4.57143C54.0564 4.57143 53.6784 4.92203 52.8753 5.72309L52.8469 5.75144C51.9318 6.66446 50.5933 8 48.1255 8C45.6578 8 44.3193 6.66462 43.4043 5.75169L43.3757 5.72318C42.5726 4.92224 42.1944 4.57143 41.2502 4.57143C40.306 4.57143 39.9278 4.92224 39.1247 5.72318L39.0962 5.75169C38.1811 6.66461 36.8426 8 34.3749 8C31.9072 8 30.5687 6.66461 29.6536 5.75169L29.6251 5.72318C28.822 4.92224 28.4438 4.57143 27.4996 4.57143C26.5553 4.57143 26.1769 4.92235 25.3738 5.72326L25.3449 5.752C24.43 6.66474 23.0914 8 20.6243 8C18.157 8 16.8185 6.66459 15.9035 5.75177L15.8749 5.72318C15.0717 4.92214 14.6935 4.57143 13.7498 4.57143C12.8062 4.57143 12.4282 4.92203 11.6251 5.72309L11.5967 5.75144C10.6816 6.66446 9.34312 8 6.8753 8C4.40762 8 3.06892 6.6646 2.15372 5.75165C2.14419 5.74214 2.1347 5.73268 2.12526 5.72326C1.32191 4.92213 0.943718 4.57143 0 4.57143V0Z" fill="#2C3FE6"/>
</svg>
